<svg width="20" height="20" viewBox="0 0 20 20" fill="none" xmlns="http://www.w3.org/2000/svg">
<path d="M10 20C4.48593 20 0 15.5141 0 10C0 4.48593 4.48593 0 10 0C15.5141 0 20 4.48593 20 10C20 15.5141 15.5141 20 10 20ZM10 1.42853C5.27374 1.42853 1.42853 5.27374 1.42853 10C1.42853 14.7263 5.27374 18.5715 10 18.5715C14.7263 18.5715 18.5715 14.7263 18.5715 10C18.5715 5.27374 14.7263 1.42853 10 1.42853Z" fill="white"/>
<path d="M13.571 14.2857C13.3882 14.2857 13.2054 14.216 13.066 14.0764L5.92318 6.93359C5.6441 6.65451 5.6441 6.20254 5.92318 5.92361C6.20211 5.64468 6.65423 5.64453 6.93316 5.92361L14.076 13.0664C14.355 13.3455 14.355 13.7975 14.076 14.0764C13.9365 14.216 13.7538 14.2857 13.571 14.2857Z" fill="white"/>
<path d="M6.42809 14.2858C6.24529 14.2858 6.06264 14.2161 5.92318 14.0764C5.6441 13.7975 5.6441 13.3454 5.92318 13.0665L13.066 5.92367C13.3451 5.64458 13.797 5.64458 14.076 5.92367C14.3549 6.2026 14.355 6.65472 14.076 6.93365L6.93316 14.0764C6.79369 14.2161 6.61089 14.2858 6.42809 14.2858Z" fill="white"/>
</svg>
