<svg width="25" height="22" viewBox="0 0 25 22" fill="none" xmlns="http://www.w3.org/2000/svg">
<path d="M21.7859 5.34497L15.9399 0.188848C15.8034 0.0684492 15.6172 0 15.4231 0H5.19231C3.98347 0 3 0.86741 3 1.93359V20.0664C3 21.1326 3.98347 22 5.19231 22H19.8077C21.0165 22 22 21.1326 22 20.0664V5.80078C22 5.62504 21.9164 5.46 21.7859 5.34497ZM16.1538 2.20056L19.505 5.15625H16.8846C16.4817 5.15625 16.1538 4.86711 16.1538 4.51172V2.20056ZM19.8077 20.7109H5.19231C4.78936 20.7109 4.46154 20.4218 4.46154 20.0664V1.93359C4.46154 1.5782 4.78936 1.28906 5.19231 1.28906H14.6923V4.51172C14.6923 5.5779 15.6758 6.44531 16.8846 6.44531H20.5385V20.0664C20.5385 20.4218 20.2106 20.7109 19.8077 20.7109Z" fill="white"/>
<path d="M16.8848 9.10938H8.11553C7.71196 9.10938 7.38477 9.39795 7.38477 9.75391C7.38477 10.1099 7.71196 10.3984 8.11553 10.3984H16.8848C17.2883 10.3984 17.6155 10.1099 17.6155 9.75391C17.6155 9.39795 17.2883 9.10938 16.8848 9.10938Z" fill="white"/>
<path d="M16.8848 11.6875H8.11553C7.71196 11.6875 7.38477 11.9761 7.38477 12.332C7.38477 12.688 7.71196 12.9766 8.11553 12.9766H16.8848C17.2883 12.9766 17.6155 12.688 17.6155 12.332C17.6155 11.9761 17.2883 11.6875 16.8848 11.6875Z" fill="white"/>
<path d="M16.8848 14.2656H8.11553C7.71196 14.2656 7.38477 14.5542 7.38477 14.9102C7.38477 15.2661 7.71196 15.5547 8.11553 15.5547H16.8848C17.2883 15.5547 17.6155 15.2661 17.6155 14.9102C17.6155 14.5542 17.2883 14.2656 16.8848 14.2656Z" fill="white"/>
<path d="M13.9617 16.8438H8.11553C7.71196 16.8438 7.38477 17.1323 7.38477 17.4883C7.38477 17.8442 7.71196 18.1328 8.11553 18.1328H13.9617C14.3653 18.1328 14.6925 17.8442 14.6925 17.4883C14.6925 17.1323 14.3653 16.8438 13.9617 16.8438Z" fill="white"/>
</svg>
