<svg width="20" height="30" viewBox="0 0 20 30" fill="none" xmlns="http://www.w3.org/2000/svg">
<g clip-path="url(#clip0)">
<path d="M19.9838 10.8801C19.9369 9.81738 19.7651 9.0868 19.5189 8.45374C19.2649 7.78176 18.8743 7.18014 18.3624 6.68002C17.8623 6.1721 17.2567 5.77743 16.5925 5.52745C15.9558 5.28127 15.2291 5.10943 14.1665 5.06257C13.0959 5.01175 12.756 5 10.0407 5C7.32542 5 6.98555 5.01175 5.91894 5.05861C4.85629 5.10546 4.12573 5.27746 3.49285 5.52348C2.82074 5.77743 2.21914 6.16814 1.71903 6.68002C1.21113 7.18014 0.816626 7.78573 0.566493 8.44992C0.320328 9.0868 0.148486 9.81341 0.101634 10.8761C0.0508137 11.9467 0.0390625 12.2866 0.0390625 15.002C0.0390625 17.7173 0.0508137 18.0572 0.0976659 19.1239C0.144518 20.1865 0.316513 20.9171 0.562678 21.5502C0.816626 22.2221 1.21113 22.8238 1.71903 23.3239C2.21914 23.8318 2.82471 24.2265 3.48888 24.4765C4.12573 24.7226 4.85233 24.8945 5.91512 24.9413C6.98158 24.9883 7.3216 24.9999 10.0369 24.9999C12.7522 24.9999 13.0921 24.9883 14.1587 24.9413C15.2213 24.8945 15.9519 24.7226 16.5848 24.4765C17.9288 23.9568 18.9915 22.8941 19.5111 21.5502C19.7571 20.9133 19.9291 20.1865 19.976 19.1239C20.0228 18.0572 20.0346 17.7173 20.0346 15.002C20.0346 12.2866 20.0306 11.9467 19.9838 10.8801ZM18.1828 19.0457C18.1397 20.0225 17.9757 20.5499 17.8389 20.9015C17.5029 21.7728 16.8114 22.4643 15.9401 22.8004C15.5885 22.9372 15.0573 23.1012 14.0843 23.1441C13.0295 23.1911 12.7131 23.2027 10.0447 23.2027C7.37624 23.2027 7.05591 23.1911 6.00486 23.1441C5.02814 23.1012 4.50071 22.9372 4.14908 22.8004C3.71551 22.6402 3.32085 22.3862 3.00052 22.0541C2.66843 21.7298 2.41448 21.3391 2.25424 20.9055C2.1175 20.5539 1.95344 20.0225 1.91056 19.0497C1.86355 17.9948 1.85195 17.6783 1.85195 15.0097C1.85195 12.3412 1.86355 12.0209 1.91056 10.9699C1.95344 9.99319 2.1175 9.46575 2.25424 9.11412C2.41448 8.68038 2.66843 8.28586 3.00449 7.96536C3.32864 7.63327 3.71933 7.37931 4.15305 7.21921C4.50467 7.08247 5.03607 6.9184 6.00883 6.87537C7.06369 6.82851 7.38021 6.81676 10.0485 6.81676C12.7209 6.81676 13.0373 6.82851 14.0883 6.87537C15.065 6.9184 15.5925 7.08247 15.9441 7.21921C16.3777 7.37931 16.7723 7.63327 17.0927 7.96536C17.4247 8.28967 17.6787 8.68038 17.8389 9.11412C17.9757 9.46575 18.1397 9.99701 18.1828 10.9699C18.2296 12.0248 18.2414 12.3412 18.2414 15.0097C18.2414 17.6783 18.2296 17.9908 18.1828 19.0457Z" fill="white"/>
<path d="M10.0401 9.86426C7.20367 9.86426 4.90234 12.1655 4.90234 15.0021C4.90234 17.8388 7.20367 20.14 10.0401 20.14C12.8766 20.14 15.1778 17.8388 15.1778 15.0021C15.1778 12.1655 12.8766 9.86426 10.0401 9.86426ZM10.0401 18.3349C8.19995 18.3349 6.70735 16.8425 6.70735 15.0021C6.70735 13.1618 8.19995 11.6693 10.0401 11.6693C11.8803 11.6693 13.3728 13.1618 13.3728 15.0021C13.3728 16.8425 11.8803 18.3349 10.0401 18.3349Z" fill="white"/>
<path d="M16.5795 9.66117C16.5795 10.3236 16.0423 10.8607 15.3798 10.8607C14.7173 10.8607 14.1802 10.3236 14.1802 9.66117C14.1802 8.99861 14.7173 8.46167 15.3798 8.46167C16.0423 8.46167 16.5795 8.99861 16.5795 9.66117Z" fill="white"/>
</g>
<defs>
<clipPath id="clip0">
<rect width="20" height="30" fill="white"/>
</clipPath>
</defs>
</svg>
