<svg width="24" height="24" viewBox="0 0 24 24" fill="none" xmlns="http://www.w3.org/2000/svg">
<path d="M8 4.5C8 5.88071 6.88071 7 5.5 7C4.11929 7 3 5.88071 3 4.5C3 3.11929 4.11929 2 5.5 2C6.88071 2 8 3.11929 8 4.5Z" fill="white"/>
<path d="M8 11.5C8 12.8807 6.88071 14 5.5 14C4.11929 14 3 12.8807 3 11.5C3 10.1193 4.11929 9 5.5 9C6.88071 9 8 10.1193 8 11.5Z" fill="white"/>
<path d="M8 18.5C8 19.8807 6.88071 21 5.5 21C4.11929 21 3 19.8807 3 18.5C3 17.1193 4.11929 16 5.5 16C6.88071 16 8 17.1193 8 18.5Z" fill="white"/>
<path d="M15 4.5C15 5.88071 13.8807 7 12.5 7C11.1193 7 10 5.88071 10 4.5C10 3.11929 11.1193 2 12.5 2C13.8807 2 15 3.11929 15 4.5Z" fill="white"/>
<path d="M15 11.5C15 12.8807 13.8807 14 12.5 14C11.1193 14 10 12.8807 10 11.5C10 10.1193 11.1193 9 12.5 9C13.8807 9 15 10.1193 15 11.5Z" fill="white"/>
<path d="M15 18.5C15 19.8807 13.8807 21 12.5 21C11.1193 21 10 19.8807 10 18.5C10 17.1193 11.1193 16 12.5 16C13.8807 16 15 17.1193 15 18.5Z" fill="white"/>
<path d="M22 18.5C22 19.8807 20.8807 21 19.5 21C18.1193 21 17 19.8807 17 18.5C17 17.1193 18.1193 16 19.5 16C20.8807 16 22 17.1193 22 18.5Z" fill="white"/>
<path d="M22 11.5C22 12.8807 20.8807 14 19.5 14C18.1193 14 17 12.8807 17 11.5C17 10.1193 18.1193 9 19.5 9C20.8807 9 22 10.1193 22 11.5Z" fill="white"/>
<path d="M22 4.5C22 5.88071 20.8807 7 19.5 7C18.1193 7 17 5.88071 17 4.5C17 3.11929 18.1193 2 19.5 2C20.8807 2 22 3.11929 22 4.5Z" fill="white"/>
</svg>
