<svg width="100" height="69" viewBox="0 0 100 69" fill="none" xmlns="http://www.w3.org/2000/svg">
<path d="M97.34 0H2.66005C1.19164 0 0 0.822235 0 1.83472V67.1646C0 68.1778 1.19164 68.9993 2.66005 68.9993H97.34C98.8084 68.9993 100 68.1778 100 67.1646V1.83472C100 0.822235 98.8084 0 97.34 0ZM69.8809 36.236L40.3436 52.2685C39.7681 52.5805 39.0684 52.7412 38.3645 52.7412C37.8883 52.7412 37.4099 52.667 36.9661 52.5185C35.8632 52.1481 35.1634 51.3778 35.1634 50.5325V18.4675C35.1634 17.6215 35.8632 16.8504 36.9661 16.4815C38.0668 16.1132 39.3796 16.2091 40.3426 16.7322L69.8799 32.7647C70.6507 33.1834 71.1008 33.8233 71.1008 34.5C71.1008 35.1774 70.6507 35.8166 69.8809 36.236Z" fill="white"/>
</svg>
