<svg width="30" height="30" viewBox="0 0 30 30" fill="none" xmlns="http://www.w3.org/2000/svg">
<path d="M29.7195 28.1518L21.9482 20.3799C23.6811 18.2523 24.7241 15.5414 24.7241 12.5894C24.7241 5.77259 19.1792 0.227051 12.3624 0.227051C5.54554 0.227051 0 5.77196 0 12.5894C0 19.4057 5.54554 24.9512 12.3624 24.9512C15.5387 24.9512 18.4307 23.736 20.6233 21.7595L28.3672 29.504C28.554 29.6909 28.7995 29.7839 29.0437 29.7839C29.2891 29.7839 29.5333 29.6909 29.7201 29.504C30.0931 29.1311 30.0931 28.5247 29.7195 28.1518ZM1.27449 12.5888C1.27449 6.47519 6.24814 1.50154 12.3618 1.50154C18.4747 1.50154 23.4484 6.47519 23.4484 12.5888C23.4484 15.521 22.295 18.1834 20.4301 20.1688C20.4212 20.1765 20.4117 20.179 20.4027 20.1867C20.39 20.2001 20.3862 20.2173 20.374 20.23C18.3536 22.3474 15.5126 23.6748 12.3624 23.6748C6.24814 23.6754 1.27449 18.7018 1.27449 12.5888Z" fill="white"/>
</svg>
