<svg width="24" height="24" viewBox="0 0 24 24" fill="none" xmlns="http://www.w3.org/2000/svg">
<path d="M21.9403 2.67778C21.9395 2.67464 21.9383 2.67149 21.9375 2.66835C21.9241 2.60588 21.9014 2.54537 21.8727 2.48682C21.8652 2.47189 21.8577 2.45736 21.8495 2.44243C21.8157 2.3831 21.7764 2.32612 21.7257 2.27544C21.675 2.22475 21.6177 2.18546 21.5583 2.15167C21.5442 2.14342 21.5301 2.13635 21.5151 2.12888C21.455 2.09941 21.3933 2.07545 21.3289 2.06209C21.3269 2.06169 21.3257 2.0613 21.3242 2.06091C21.257 2.04755 21.1886 2.04558 21.1203 2.04991C21.1053 2.05069 21.0904 2.05226 21.0755 2.05423C21.0063 2.06248 20.9375 2.07702 20.8719 2.10374L3.58423 9.17614C3.2758 9.30226 3.08052 9.60913 3.09663 9.94153C3.11274 10.2743 3.3367 10.5608 3.65614 10.6562L11.1089 12.8923L13.3445 20.345C13.4404 20.6641 13.7268 20.888 14.0592 20.9041C14.0722 20.9045 14.0848 20.9049 14.0978 20.9049C14.4152 20.9049 14.7036 20.7132 14.825 20.4165L21.8974 3.12845C21.8974 3.12806 21.8974 3.12806 21.8974 3.12766C21.9238 3.06322 21.9379 2.99604 21.9462 2.92806C21.9481 2.91117 21.9501 2.89467 21.9509 2.87777C21.9548 2.81098 21.9532 2.74379 21.9403 2.67778ZM6.23638 9.78908L17.8524 5.03682L11.5163 11.3733L6.23638 9.78908ZM14.2113 17.7648L12.6275 12.4844L18.9632 6.14876L14.2113 17.7648Z" fill="white"/>
<path d="M9.93867 14.0622C9.63181 13.7553 9.13438 13.7553 8.82752 14.0622L6.86296 16.0267C6.5561 16.3336 6.5561 16.831 6.86296 17.1379C7.01659 17.2915 7.21737 17.3682 7.41854 17.3682C7.61971 17.3682 7.82048 17.2915 7.97411 17.1379L9.93867 15.1733C10.2455 14.8665 10.2455 14.369 9.93867 14.0622Z" fill="white"/>
<path d="M9.93867 14.0622C9.63181 13.7553 9.13438 13.7553 8.82752 14.0622L6.86296 16.0267C6.5561 16.3336 6.5561 16.831 6.86296 17.1379C7.01659 17.2915 7.21737 17.3682 7.41854 17.3682C7.61971 17.3682 7.82048 17.2915 7.97411 17.1379L9.93867 15.1733C10.2455 14.8665 10.2455 14.369 9.93867 14.0622Z" fill="white"/>
<path d="M9.93867 14.0622C9.63181 13.7553 9.13438 13.7553 8.82752 14.0622L6.86296 16.0267C6.5561 16.3336 6.5561 16.831 6.86296 17.1379C7.01659 17.2915 7.21737 17.3682 7.41854 17.3682C7.61971 17.3682 7.82048 17.2915 7.97411 17.1379L9.93867 15.1733C10.2455 14.8665 10.2455 14.369 9.93867 14.0622Z" fill="white"/>
<path d="M5.61574 14.0622C5.30888 13.7553 4.81145 13.7553 4.50459 14.0622L3.32585 15.2409C3.01899 15.5478 3.01899 16.0452 3.32585 16.3521C3.47948 16.5057 3.68026 16.5823 3.88143 16.5823C4.0826 16.5823 4.28338 16.5057 4.43701 16.3521L5.61574 15.1733C5.9226 14.8665 5.9226 14.369 5.61574 14.0622Z" fill="white"/>
<path d="M9.93605 18.3854C9.62919 18.0786 9.13176 18.0786 8.8249 18.3854L7.64616 19.5642C7.3393 19.871 7.3393 20.3684 7.64616 20.6753C7.79979 20.8289 8.00057 20.9056 8.20174 20.9056C8.40291 20.9056 8.60369 20.8289 8.75732 20.6753L9.93605 19.4966C10.2429 19.1897 10.2429 18.6923 9.93605 18.3854Z" fill="white"/>
</svg>
