<svg width="24" height="24" viewBox="0 0 24 24" fill="none" xmlns="http://www.w3.org/2000/svg">
<path d="M21.1447 14.3128C20.8701 14.0129 20.4249 14.0129 20.1503 14.3128C19.8757 14.6128 19.8757 15.0992 20.1503 15.3992L21.5687 16.9488C21.706 17.0988 21.8859 17.1738 22.0659 17.1738C22.2459 17.1738 22.4258 17.0987 22.5631 16.9488C22.8377 16.6489 22.8377 16.1624 22.5631 15.8625L21.1447 14.3128Z" fill="white"/>
<path d="M20.6475 7.9565C20.8274 7.9565 21.0074 7.88147 21.1447 7.73153L22.5631 6.18194C22.8377 5.882 22.8377 5.39559 22.5631 5.0956C22.2885 4.79561 21.8433 4.79561 21.5687 5.0956L20.1503 6.64519C19.8757 6.94513 19.8757 7.43154 20.1503 7.73153C20.2876 7.88153 20.4675 7.9565 20.6475 7.9565Z" fill="white"/>
<path d="M23.297 10.2539H21.291C20.9027 10.2539 20.5879 10.5978 20.5879 11.0221C20.5879 11.4463 20.9027 11.7902 21.291 11.7902H23.297C23.6854 11.7902 24.0002 11.4463 24.0002 11.0221C24.0002 10.5978 23.6854 10.2539 23.297 10.2539Z" fill="white"/>
<path d="M18.7153 0.0979656C18.4933 -0.037897 18.2214 -0.0320589 18.0044 0.113073L9.95172 5.50072H6.37688C5.6134 5.45663 4.8871 5.7473 4.32955 6.32066C4.12203 6.534 3.94709 6.78027 3.80768 7.04862H2.03851C0.914465 7.04862 0 8.04764 0 9.27563V12.7688C0 13.9968 0.914465 14.9958 2.03851 14.9958H3.80416C4.0873 15.5488 4.51471 16.0072 5.03434 16.3106L2.58453 20.9462C2.49054 21.124 2.46565 21.3356 2.51539 21.5337C2.56517 21.7317 2.68546 21.8997 2.84938 22.0002L5.95176 23.9016C6.06051 23.9683 6.17864 24 6.29517 24C6.53832 24 6.77463 23.862 6.90471 23.6158L10.4029 16.9963L18.0124 21.9366C18.123 22.0085 18.2473 22.0444 18.3716 22.0444C18.4915 22.0444 18.6114 22.011 18.7193 21.9439C18.939 21.8073 19.0747 21.5524 19.0747 21.2762V0.768163C19.0747 0.49019 18.9372 0.233879 18.7153 0.0979656ZM2.03851 13.4595C1.68989 13.4595 1.40629 13.1497 1.40629 12.7688V9.27563C1.40629 8.89477 1.68989 8.58495 2.03851 8.58495H3.42859C3.42849 8.59642 3.42779 8.60784 3.42779 8.61931V13.4251C3.42779 13.4367 3.42845 13.448 3.42859 13.4595H2.03851ZM4.83408 8.61931C4.83408 8.16958 5.00148 7.73951 5.29333 7.43941C5.57112 7.15381 5.93357 7.01016 6.31444 7.03566C6.32864 7.03659 9.44686 7.03705 9.44686 7.03705V15.1704H6.38011C5.51154 15.1022 4.83408 14.3395 4.83408 13.4251V8.61931ZM6.03412 22.1905L4.15831 21.0409L6.4074 16.7851C6.42094 16.7595 6.43262 16.7332 6.44316 16.7067H8.93216L6.03412 22.1905ZM17.6684 19.9262L10.8532 15.5015V6.69921L17.6684 2.13939V19.9262Z" fill="white"/>
</svg>
