<svg width="20" height="30" viewBox="0 0 20 30" fill="none" xmlns="http://www.w3.org/2000/svg">
<g clip-path="url(#clip0)">
<path d="M19.6914 6.98669C19.4471 6.68793 19.0812 6.52344 18.661 6.52344C18.4326 6.52344 18.1906 6.5715 17.9419 6.66656L1.01224 13.1291C0.113801 13.472 -0.00720127 13.9865 0.000580706 14.2627C0.00836268 14.5389 0.158357 15.0458 1.0748 15.3374C1.08029 15.3391 1.08579 15.3407 1.09128 15.3423L4.60294 16.3472L6.50205 21.7778C6.76099 22.5182 7.34219 22.9781 8.01907 22.9781C8.44586 22.9781 8.86563 22.7992 9.23306 22.4611L11.4052 20.4611L14.5556 22.9979C14.5559 22.9982 14.5564 22.9984 14.5567 22.9987L14.5866 23.0228C14.5894 23.0249 14.5923 23.0272 14.595 23.0293C14.9452 23.3009 15.3274 23.4444 15.7008 23.4445H15.701C16.4305 23.4445 17.0114 22.9045 17.1806 22.0689L19.9545 8.37204C20.0659 7.82227 19.9725 7.33032 19.6914 6.98669ZM5.77771 16.1563L12.5528 12.6952L8.33417 17.1777C8.26505 17.2511 8.21607 17.341 8.19196 17.4388L7.37851 20.7338L5.77771 16.1563ZM8.43915 21.599C8.41107 21.6248 8.38284 21.6478 8.35462 21.669L9.10931 18.6124L10.4821 19.7179L8.43915 21.599ZM18.806 8.13934L16.0321 21.8364C16.0054 21.9675 15.9201 22.2725 15.7008 22.2725C15.5925 22.2725 15.4564 22.2134 15.317 22.1062L11.7471 19.2317C11.7466 19.2313 11.746 19.2308 11.7454 19.2305L9.62125 17.52L15.7219 11.0376C15.9172 10.8301 15.9349 10.5122 15.7638 10.2843C15.5926 10.0563 15.2824 9.98459 15.0287 10.1143L4.99478 15.2403L1.43536 14.222L18.3598 7.76138C18.5028 7.70676 18.6026 7.69531 18.661 7.69531C18.6969 7.69531 18.7607 7.69958 18.7843 7.72873C18.8154 7.76672 18.8551 7.89627 18.806 8.13934Z" fill="white"/>
</g>
<defs>
<clipPath id="clip0">
<rect width="20" height="30" fill="white"/>
</clipPath>
</defs>
</svg>
