<svg width="20" height="20" viewBox="0 0 20 20" fill="none" xmlns="http://www.w3.org/2000/svg">
<path d="M10 0C4.47734 0 0 4.47714 0 10C0 15.5229 4.47734 20 10 20C15.5227 20 20 15.5229 20 10C20 4.47714 15.5227 0 10 0ZM15.0725 11.0815C15.5386 11.5368 16.0317 11.9652 16.4501 12.4675C16.6355 12.6897 16.8102 12.9195 16.9432 13.1779C17.1331 13.5464 16.9616 13.9505 16.6318 13.9724L14.5831 13.972C14.054 14.0158 13.6329 13.8024 13.278 13.4406C12.9946 13.1523 12.7317 12.8444 12.4587 12.5463C12.3472 12.4239 12.2298 12.3087 12.0898 12.2181C11.8105 12.0364 11.5679 12.0921 11.4079 12.3838C11.2448 12.6807 11.2076 13.0097 11.192 13.3402C11.1697 13.8232 11.024 13.9495 10.5393 13.9722C9.50363 14.0207 8.52092 13.8635 7.60757 13.3414C6.80184 12.8808 6.17821 12.2308 5.63478 11.4948C4.57657 10.0602 3.76614 8.48552 3.03795 6.86568C2.87407 6.50087 2.99396 6.30568 3.39642 6.29811C4.06506 6.28522 4.73371 6.28685 5.40235 6.29749C5.67448 6.30179 5.85453 6.45749 5.95908 6.71427C6.32041 7.60327 6.76338 8.44911 7.31847 9.23356C7.46639 9.44246 7.61739 9.65074 7.83243 9.79826C8.06977 9.96113 8.25064 9.90731 8.36256 9.64235C8.43417 9.47396 8.46506 9.29391 8.48061 9.11345C8.53381 8.49535 8.54015 7.87744 8.44808 7.26179C8.39079 6.87652 8.17412 6.62772 7.79008 6.55488C7.59448 6.51785 7.62312 6.44542 7.71826 6.33371C7.88338 6.14056 8.03806 6.02107 8.34721 6.02107L10.6619 6.02067C11.0267 6.09228 11.1085 6.25596 11.1581 6.62343L11.1601 9.1957C11.1558 9.3379 11.2315 9.75939 11.4869 9.85248C11.6915 9.92 11.8265 9.75591 11.9488 9.62639C12.5039 9.03734 12.8994 8.3421 13.2536 7.62251C13.4099 7.30517 13.5448 6.97678 13.6757 6.64778C13.7731 6.4045 13.9245 6.28481 14.1991 6.2889L16.428 6.29156C16.4937 6.29156 16.5604 6.29217 16.6255 6.30343C17.0011 6.36767 17.104 6.52931 16.9878 6.89575C16.8049 7.47151 16.4495 7.9511 16.1021 8.43192C15.7297 8.9467 15.3326 9.44348 14.9639 9.96051C14.6251 10.4331 14.6519 10.6711 15.0725 11.0815Z" fill="black"/>
</svg>
