<svg width="25" height="24" viewBox="0 0 25 24" fill="none" xmlns="http://www.w3.org/2000/svg">
<path d="M16.5503 12.5962L10.691 16.1119C10.4651 16.2473 10.1806 16.2545 9.94771 16.1306C9.7148 16.0067 9.57031 15.7712 9.57031 15.5156V8.48437C9.57031 8.22876 9.7148 7.99331 9.94771 7.86937C10.0583 7.8105 10.1806 7.78125 10.3027 7.78125C10.4376 7.78125 10.5724 7.81701 10.6909 7.88812L16.5503 11.4037C16.7645 11.5322 16.8945 11.7576 16.8945 12C16.8945 12.2424 16.7645 12.4678 16.5503 12.5962ZM11.0352 9.753V14.247L14.7802 12L11.0352 9.753Z" fill="white"/>
<path d="M21.3379 21.1406H3.66211C1.64282 21.1406 0 19.5635 0 17.625V6.375C0 4.43649 1.64282 2.85938 3.66211 2.85938H21.3379C23.3572 2.85938 25 4.43649 25 6.375V17.625C25 19.5635 23.3572 21.1406 21.3379 21.1406ZM23.5352 6.375C23.5352 5.21189 22.5495 4.26562 21.3379 4.26562H3.66211C2.45054 4.26562 1.46484 5.21189 1.46484 6.375V17.625C1.46484 18.7881 2.45054 19.7344 3.66211 19.7344H21.3379C22.5495 19.7344 23.5352 18.7881 23.5352 17.625V6.375Z" fill="white"/>
</svg>
