<svg width="20" height="30" viewBox="0 0 20 30" fill="none" xmlns="http://www.w3.org/2000/svg">
<g clip-path="url(#clip0)">
<path d="M13.1189 14.1013L8.70081 11.6837C8.44678 11.5447 8.14651 11.5499 7.89751 11.6975C7.64836 11.8452 7.49976 12.1061 7.49976 12.3957V17.1894C7.49976 17.4776 7.64745 17.7381 7.89492 17.886C8.02415 17.9632 8.16742 18.0019 8.31099 18.0019C8.44251 18.0019 8.57433 17.9694 8.69563 17.9041L13.1138 15.5282C13.3761 15.387 13.5398 15.1144 13.5411 14.8163C13.5421 14.5183 13.3804 14.2444 13.1189 14.1013ZM8.67167 16.5864V13.0036L11.9737 14.8105L8.67167 16.5864Z" fill="white"/>
<path d="M19.8528 10.9972L19.8519 10.988C19.835 10.827 19.6664 9.39514 18.9703 8.66684C18.1657 7.81021 17.2535 7.70615 16.8148 7.65625C16.7785 7.65213 16.7452 7.64832 16.7155 7.64435L16.6805 7.64069C14.0365 7.44843 10.0434 7.42218 10.0035 7.42203L9.99996 7.42188L9.99645 7.42203C9.95647 7.42218 5.96342 7.44843 3.29558 7.64069L3.26033 7.64435C3.23195 7.64816 3.20067 7.65167 3.16664 7.65564C2.73299 7.70569 1.83059 7.80991 1.02371 8.69751C0.360716 9.41803 0.169067 10.8192 0.149383 10.9767L0.147094 10.9972C0.141143 11.0641 0 12.6588 0 14.2598V15.7564C0 17.3573 0.141143 18.952 0.147094 19.0192L0.148162 19.0292C0.165099 19.1876 0.333556 20.5933 1.02645 21.3219C1.78298 22.1498 2.73955 22.2594 3.25408 22.3183C3.33541 22.3276 3.40544 22.3355 3.4532 22.3439L3.49944 22.3503C5.02607 22.4956 9.81258 22.5671 10.0155 22.57L10.0216 22.5702L10.0277 22.57C10.0677 22.5699 14.0606 22.5436 16.7046 22.3514L16.7396 22.3477C16.773 22.3433 16.8105 22.3393 16.8517 22.3351C17.283 22.2893 18.1805 22.1942 18.9762 21.3187C19.6392 20.598 19.831 19.1968 19.8505 19.0395L19.8528 19.019C19.8588 18.9519 20.0001 17.3573 20.0001 15.7564V14.2598C19.9999 12.6588 19.8588 11.0643 19.8528 10.9972ZM18.8279 15.7564C18.8279 17.2382 18.6985 18.7642 18.6863 18.9043C18.6366 19.2902 18.4344 20.1767 18.1113 20.5278C17.6133 21.0757 17.1017 21.1301 16.7281 21.1696C16.683 21.1743 16.6412 21.1789 16.6033 21.1836C14.046 21.3686 10.2037 21.3969 10.0267 21.398C9.82815 21.3951 5.11167 21.3229 3.63158 21.1855C3.55574 21.1731 3.4738 21.1636 3.38744 21.1539C2.94936 21.1037 2.34969 21.035 1.88857 20.5278L1.87774 20.5162C1.56036 20.1855 1.36398 19.3565 1.31408 18.9088C1.30477 18.8029 1.17202 17.2589 1.17202 15.7564V14.2598C1.17202 12.7797 1.30111 11.2553 1.31362 11.1124C1.37298 10.6578 1.57897 9.82498 1.88857 9.48837C2.40188 8.9238 2.9431 8.86124 3.30107 8.81989C3.33525 8.81592 3.36714 8.81226 3.39659 8.80844C5.99119 8.62259 9.86111 8.59497 9.99996 8.5939C10.1388 8.59482 14.0074 8.62259 16.5789 8.80844C16.6105 8.81241 16.645 8.81638 16.6821 8.82065C17.0503 8.86261 17.6067 8.92609 18.1175 9.47083L18.1222 9.47586C18.4396 9.80652 18.6359 10.65 18.6858 11.1067C18.6947 11.2067 18.8279 12.7541 18.8279 14.2598V15.7564Z" fill="white"/>
</g>
<defs>
<clipPath id="clip0">
<rect width="20" height="30" fill="white"/>
</clipPath>
</defs>
</svg>
